<svg width="120" height="120" viewBox="0 0 120 120" fill="none" xmlns="http://www.w3.org/2000/svg">
<circle cx="60" cy="60" r="60" fill="#166534"/>
<path d="M19.6851 97C18.8018 97 18.3601 96.5583 18.3601 95.675V27.676C18.3601 26.7927 18.8018 26.351 19.6851 26.351H49.7891C50.6371 26.351 51.3438 26.6337 51.9091 27.199L62.5091 37.799C63.1098 38.3997 63.4101 39.1063 63.4101 39.919V95.675C63.4101 96.5583 62.9684 97 62.0851 97H47.0861C46.2028 97 45.7611 96.5583 45.7611 95.675V40.449H36.0091V95.675C36.0091 96.5583 35.5674 97 34.6841 97H19.6851Z" fill="#F9F9F9"/>
<path d="M68.9668 97C68.0835 97 67.6418 96.5583 67.6418 95.675V27.676C67.6418 26.7927 68.0835 26.351 68.9668 26.351H105.272C106.155 26.351 106.597 26.7927 106.597 27.676V39.124C106.597 40.0073 106.155 40.449 105.272 40.449H85.2908V58.151H102.622C103.505 58.151 103.947 58.5927 103.947 59.476V70.924C103.947 71.8074 103.505 72.249 102.622 72.249H85.2908V95.675C85.2908 96.5583 84.8492 97 83.9658 97H68.9668Z" fill="#022C22"/>
</svg>
